<?xml version="1.0" standalone="no"?>
<!DOCTYPE svg PUBLIC "-//W3C//DTD SVG 20010904//EN"
 "http://www.w3.org/TR/2001/REC-SVG-20010904/DTD/svg10.dtd">
<svg version="1.0" xmlns="http://www.w3.org/2000/svg"
 width="2400.000000pt" height="2400.000000pt" viewBox="0 0 2400.000000 2400.000000"
 preserveAspectRatio="xMidYMid meet">
<metadata>
Created by potrace 1.14, written by Peter Selinger 2001-2017
</metadata>
<g transform="translate(0.000000,2400.000000) scale(0.100000,-0.100000)"
fill="#000000" stroke="none">
<path d="M11588 23995 c-2 -1 -73 -6 -158 -9 -85 -3 -177 -8 -205 -11 -27 -2
-88 -7 -135 -10 -47 -3 -105 -7 -130 -10 -25 -2 -76 -7 -115 -11 -152 -13
-155 -14 -280 -29 -111 -14 -413 -56 -435 -60 -14 -3 -54 -10 -90 -15 -36 -5
-78 -12 -95 -15 -45 -8 -397 -76 -420 -81 -342 -72 -665 -155 -1000 -255 -285
-86 -865 -291 -1029 -363 -17 -8 -83 -35 -146 -61 -63 -27 -169 -72 -235 -102
-66 -30 -147 -66 -180 -81 -125 -56 -587 -292 -765 -392 -776 -433 -1483 -936
-2139 -1519 -341 -303 -761 -724 -1014 -1015 -10 -12 -31 -34 -46 -51 -414
-461 -920 -1156 -1276 -1755 -139 -234 -157 -265 -204 -352 -221 -410 -283
-535 -483 -978 -31 -68 -178 -421 -178 -427 0 -3 -7 -19 -15 -36 -22 -48 -146
-395 -194 -542 -24 -71 -45 -137 -48 -145 -3 -8 -7 -19 -9 -25 -2 -5 -30 -100
-64 -210 -33 -110 -62 -207 -64 -215 -1 -8 -8 -35 -15 -60 -7 -25 -14 -52 -16
-60 -2 -8 -10 -40 -19 -71 -9 -31 -18 -65 -21 -75 -2 -11 -18 -77 -35 -149
-18 -71 -34 -139 -36 -150 -2 -11 -6 -31 -10 -45 -3 -14 -7 -38 -10 -55 -3
-16 -12 -57 -19 -90 -8 -33 -22 -98 -30 -145 -9 -47 -20 -105 -25 -130 -8 -37
-52 -292 -65 -380 -10 -64 -36 -260 -41 -305 -3 -27 -7 -61 -9 -75 -3 -14 -7
-54 -10 -90 -4 -36 -8 -76 -10 -89 -2 -13 -7 -58 -11 -100 -3 -42 -8 -92 -10
-111 -1 -19 -6 -75 -9 -125 -4 -49 -8 -115 -10 -145 -27 -366 -27 -1166 0
-1540 2 -30 6 -93 10 -140 3 -47 8 -110 10 -140 12 -134 16 -167 20 -200 2
-19 7 -62 10 -95 6 -58 11 -102 20 -175 2 -19 14 -100 25 -180 12 -80 23 -161
26 -180 2 -19 7 -48 11 -65 3 -16 7 -39 9 -50 1 -11 9 -59 18 -107 9 -49 23
-125 31 -170 8 -46 29 -146 46 -223 16 -77 33 -153 36 -170 10 -60 125 -504
173 -671 68 -236 197 -632 245 -754 7 -19 32 -84 55 -145 23 -60 51 -135 62
-165 12 -30 25 -59 30 -65 4 -5 8 -14 8 -21 0 -12 97 -245 151 -362 16 -35 29
-65 29 -66 0 -2 21 -48 46 -102 25 -55 45 -100 45 -101 0 -4 264 -526 292
-575 40 -72 76 -137 109 -198 17 -30 45 -80 63 -110 18 -30 53 -89 78 -130
291 -489 585 -913 946 -1365 75 -93 138 -172 141 -175 3 -3 41 -48 85 -100 70
-83 125 -146 175 -200 8 -9 30 -34 49 -55 57 -67 299 -322 427 -449 223 -224
499 -481 643 -601 19 -16 54 -46 76 -66 22 -19 92 -77 155 -128 63 -51 137
-112 164 -134 27 -23 56 -46 66 -52 9 -5 23 -16 31 -23 21 -20 199 -153 339
-255 153 -111 569 -391 704 -472 54 -33 110 -67 125 -76 46 -29 204 -121 261
-152 30 -16 60 -33 65 -37 10 -7 69 -40 230 -127 212 -115 922 -453 951 -453
3 0 29 -11 57 -24 151 -69 577 -228 852 -319 179 -59 462 -146 490 -151 5 -1
35 -10 65 -18 83 -25 351 -93 480 -123 63 -15 124 -29 135 -31 11 -3 29 -7 40
-9 11 -2 88 -17 170 -34 83 -18 165 -34 184 -37 40 -7 67 -12 101 -19 14 -3
39 -7 55 -9 17 -3 84 -13 150 -25 66 -11 138 -22 160 -25 22 -3 74 -11 115
-16 41 -6 95 -13 120 -15 51 -6 115 -14 151 -20 13 -2 56 -6 94 -9 65 -6 89
-8 215 -21 25 -2 90 -7 145 -10 55 -3 118 -8 140 -10 117 -13 375 -19 750 -20
423 0 669 8 925 29 41 4 102 9 135 11 106 9 179 16 215 20 19 2 60 7 90 10
105 12 118 14 390 50 38 5 106 16 130 20 8 2 51 8 95 15 44 7 89 14 100 16 11
3 45 9 75 14 30 6 64 12 75 14 11 2 61 11 110 21 50 9 127 25 172 35 44 11 96
22 113 25 26 5 153 35 345 81 23 6 26 7 80 22 22 6 51 13 65 16 14 3 104 28
200 56 96 29 189 55 205 60 130 34 719 239 855 297 8 3 17 7 20 8 47 16 401
165 535 225 361 161 883 432 1185 615 52 32 115 69 140 84 295 173 843 552
1140 788 30 25 62 50 70 56 231 180 549 456 799 692 191 181 452 448 631 645
47 51 90 98 95 104 30 33 204 237 290 341 55 66 105 126 112 133 7 7 13 16 13
20 0 4 13 21 29 39 50 57 275 355 371 492 159 227 344 505 435 657 236 391
352 601 534 969 114 231 191 392 191 403 0 4 12 30 25 57 14 28 25 56 25 63 0
6 3 12 8 12 4 0 12 15 18 32 7 18 52 132 101 253 93 227 108 266 198 520 115
324 300 945 331 1110 2 11 8 38 14 60 57 227 151 705 195 1000 15 101 34 245
40 300 4 33 8 67 11 75 2 8 6 44 9 80 3 36 7 81 10 100 10 78 17 150 30 330 3
47 8 112 10 145 27 365 27 1177 0 1555 -2 30 -7 91 -10 135 -10 142 -16 210
-30 335 -3 30 -8 71 -9 90 -2 19 -6 55 -10 80 -3 25 -8 68 -11 95 -7 54 -40
291 -57 395 -5 36 -11 74 -13 85 -6 40 -26 151 -40 222 -8 39 -17 89 -21 110
-3 21 -9 54 -14 73 -9 34 -37 171 -46 220 -14 73 -121 493 -173 675 -54 191
-180 591 -201 640 -4 11 -18 49 -30 85 -12 36 -26 74 -31 85 -5 11 -23 58 -40
105 -66 179 -78 210 -92 242 -8 18 -25 58 -37 88 -53 131 -89 219 -113 270
-13 30 -57 127 -97 215 -94 206 -297 607 -407 800 -12 22 -32 58 -44 80 -39
72 -186 316 -309 515 -168 270 -513 757 -708 1000 -25 30 -59 73 -76 94 -84
107 -320 385 -412 486 -199 220 -263 287 -460 484 -202 203 -289 285 -564 532
-36 32 -298 253 -395 333 -76 62 -222 175 -350 269 -82 62 -154 115 -160 120
-98 78 -583 398 -805 531 -223 134 -250 150 -405 235 -77 42 -151 84 -165 92
-76 45 -634 315 -805 389 -110 48 -213 93 -230 100 -26 12 -292 116 -460 180
-261 101 -805 269 -1165 361 -188 49 -568 135 -655 149 -16 3 -41 8 -55 10
-80 16 -114 22 -335 59 -82 13 -184 29 -225 35 -41 6 -95 13 -120 17 -79 11
-94 12 -160 19 -36 3 -72 8 -80 10 -8 2 -49 7 -90 10 -41 4 -86 8 -100 10 -14
2 -65 7 -115 10 -49 4 -106 8 -125 10 -19 2 -89 6 -155 10 -66 4 -140 9 -165
11 -54 5 -1007 14 -1012 9z"/>
</g>
</svg>
